{
  "accessors": [
    {
      "bufferView": 2,
      "componentType": 5126,
      "count": 3251,
      "max": [
        289.33111572265625,
        447.58822631835938,
        70.867408752441406
      ],
      "min": [
        -289.43988037109375,
        253.68881225585938,
        -461.67062377929688
      ],
      "type": "VEC3"
    },
    {
      "bufferView": 2,
      "byteOffset": 39012,
      "componentType": 5126,
      "count": 3251,
      "max": [
        0.99870717525482178,
        0.98716282844543457,
        0.99998253583908081
      ],
      "min": [
        -0.99830090999603271,
        -0.99994927644729614,
        -0.99464529752731323
      ],
      "type": "VEC3"
    },
    {
      "bufferView": 1,
      "componentType": 5126,
      "count": 3251,
      "max": [
        3.9962668418884277,
        0.99620211124420166
      ],
      "min": [
        3.0048317909240723,
        0.0044693294912576675
      ],
      "type": "VEC2"
    },
    {
      "bufferView": 1,
      "byteOffset": 26008,
      "componentType": 5126,
      "count": 3251,
      "max": [
        0.81491446495056152,
        0.84952545166015625
      ],
      "min": [
        0.42062807083129883,
        0.45512059330940247
      ],
      "type": "VEC2"
    },
    {
      "bufferView": 0,
      "componentType": 5125,
      "count": 17904,
      "max": [
        3250
      ],
      "min": [
        0
      ],
      "type": "SCALAR"
    },
    {
      "bufferView": 2,
      "byteOffset": 78024,
      "componentType": 5126,
      "count": 15814,
      "max": [
        13.919443130493164,
        479.69195556640625,
        765.0404052734375
      ],
      "min": [
        -17.026790618896484,
        437.67529296875,
        656.602294921875
      ],
      "type": "VEC3"
    },
    {
      "bufferView": 2,
      "byteOffset": 267792,
      "componentType": 5126,
      "count": 15814,
      "max": [
        0.99998706579208374,
        0.99999749660491943,
        0.99981629848480225
      ],
      "min": [
        -0.99989873170852661,
        -0.99997806549072266,
        -0.99924439191818237
      ],
      "type": "VEC3"
    },
    {
      "bufferView": 1,
      "byteOffset": 52016,
      "componentType": 5126,
      "count": 15814,
      "max": [
        0.99609917402267456,
        0.99572908878326416
      ],
      "min": [
        0.0018619999755173922,
        0.0039059999398887157
      ],
      "type": "VEC2"
    },
    {
      "bufferView": 1,
      "byteOffset": 178528,
      "componentType": 5126,
      "count": 15814,
      "max": [
        0.91921627521514893,
        0.49427074193954468
      ],
      "min": [
        0.48632290959358215,
        0.003537255572155118
      ],
      "type": "VEC2"
    },
    {
      "bufferView": 0,
      "byteOffset": 71616,
      "componentType": 5125,
      "count": 91800,
      "max": [
        15813
      ],
      "min": [
        0
      ],
      "type": "SCALAR"
    },
    {
      "bufferView": 2,
      "byteOffset": 457560,
      "componentType": 5126,
      "count": 1388,
      "max": [
        48.508888244628906,
        479.10595703125,
        661.48876953125
      ],
      "min": [
        -48.606113433837891,
        354.55328369140625,
        103.79759216308594
      ],
      "type": "VEC3"
    },
    {
      "bufferView": 2,
      "byteOffset": 474216,
      "componentType": 5126,
      "count": 1388,
      "max": [
        0.99991792440414429,
        0.99992334842681885,
        0.47655549645423889
      ],
      "min": [
        -0.99980223178863525,
        -0.99970239400863647,
        -0.2254217267036438
      ],
      "type": "VEC3"
    },
    {
      "bufferView": 1,
      "byteOffset": 305040,
      "componentType": 5126,
      "count": 1388,
      "max": [
        1.9946749210357666,
        0.84492218494415283
      ],
      "min": [
        1.0035669803619385,
        0.0052644014358520508
      ],
      "type": "VEC2"
    },
    {
      "bufferView": 1,
      "byteOffset": 316144,
      "componentType": 5126,
      "count": 1388,
      "max": [
        0.43951958417892456,
        0.84773242473602295
      ],
      "min": [
        0.0079924613237380981,
        0.43170484900474548
      ],
      "type": "VEC2"
    },
    {
      "bufferView": 0,
      "byteOffset": 438816,
      "componentType": 5125,
      "count": 7632,
      "max": [
        1387
      ],
      "min": [
        0
      ],
      "type": "SCALAR"
    },
    {
      "bufferView": 2,
      "byteOffset": 490872,
      "componentType": 5126,
      "count": 1971,
      "max": [
        85.160675048828125,
        460.72332763671875,
        120.76875305175781
      ],
      "min": [
        -85.179130554199219,
        329.513916015625,
        -225.89231872558594
      ],
      "type": "VEC3"
    },
    {
      "bufferView": 2,
      "byteOffset": 514524,
      "componentType": 5126,
      "count": 1971,
      "max": [
        0.99999892711639404,
        0.99999862909317017,
        0.90406006574630737
      ],
      "min": [
        -0.99999761581420898,
        -0.99939757585525513,
        -0.52664285898208618
      ],
      "type": "VEC3"
    },
    {
      "bufferView": 1,
      "byteOffset": 327248,
      "componentType": 5126,
      "count": 1971,
      "max": [
        2.9919281005859375,
        0.95214802026748657
      ],
      "min": [
        2.0080571174621582,
        0.001449286937713623
      ],
      "type": "VEC2"
    },
    {
      "bufferView": 1,
      "byteOffset": 343016,
      "componentType": 5126,
      "count": 1971,
      "max": [
        0.36726394295692444,
        0.42303988337516785
      ],
      "min": [
        0.0048594037070870399,
        0.004656671080738306
      ],
      "type": "VEC2"
    },
    {
      "bufferView": 0,
      "byteOffset": 469344,
      "componentType": 5125,
      "count": 10608,
      "max": [
        1970
      ],
      "min": [
        0
      ],
      "type": "SCALAR"
    },
    {
      "bufferView": 2,
      "byteOffset": 538176,
      "componentType": 5126,
      "count": 4347,
      "max": [
        3.73980712890625,
        455.83978271484375,
        754.06982421875
      ],
      "min": [
        -8.0278081893920898,
        443.52334594726562,
        704.94305419921875
      ],
      "type": "VEC3"
    },
    {
      "bufferView": 2,
      "byteOffset": 590340,
      "componentType": 5126,
      "count": 4347,
      "max": [
        0.99999433755874634,
        0.99977588653564453,
        0.90980297327041626
      ],
      "min": [
        -0.99945205450057983,
        -0.99994188547134399,
        -0.80289328098297119
      ],
      "type": "VEC3"
    },
    {
      "bufferView": 1,
      "byteOffset": 358784,
      "componentType": 5126,
      "count": 4347,
      "max": [
        4.9926609992980957,
        0.99537700414657593
      ],
      "min": [
        4.0079350471496582,
        0.0057069999165832996
      ],
      "type": "VEC2"
    },
    {
      "bufferView": 1,
      "byteOffset": 393560,
      "componentType": 5126,
      "count": 4347,
      "max": [
        0.51254159212112427,
        0.40256279706954956
      ],
      "min": [
        0.36992624402046204,
        0.071973420679569244
      ],
      "type": "VEC2"
    },
    {
      "bufferView": 0,
      "byteOffset": 511776,
      "componentType": 5125,
      "count": 25152,
      "max": [
        4346
      ],
      "min": [
        0
      ],
      "type": "SCALAR"
    },
    {
      "bufferView": 2,
      "byteOffset": 642504,
      "componentType": 5126,
      "count": 7200,
      "max": [
        11.549153327941895,
        455.6922607421875,
        766.64202880859375
      ],
      "min": [
        -17.378389358520508,
        439.9298095703125,
        723.11981201171875
      ],
      "type": "VEC3"
    },
    {
      "bufferView": 2,
      "byteOffset": 728904,
      "componentType": 5126,
      "count": 7200,
      "max": [
        0.99964141845703125,
        0.98031473159790039,
        0.99999505281448364
      ],
      "min": [
        -0.99905925989151001,
        -0.9974018931388855,
        -0.99998879432678223
      ],
      "type": "VEC3"
    },
    {
      "bufferView": 1,
      "byteOffset": 428336,
      "componentType": 5126,
      "count": 7200,
      "max": [
        0.9968719482421875,
        0.9969940185546875
      ],
      "min": [
        0.0061949491500854492,
        0.0043950001709163189
      ],
      "type": "VEC2"
    },
    {
      "bufferView": 1,
      "byteOffset": 485936,
      "componentType": 5126,
      "count": 7200,
      "max": [
        0.99256181716918945,
        0.98808658123016357
      ],
      "min": [
        0.019469309598207474,
        0.39440140128135681
      ],
      "type": "VEC2"
    },
    {
      "bufferView": 0,
      "byteOffset": 612384,
      "componentType": 5125,
      "count": 34560,
      "max": [
        7199
      ],
      "min": [
        0
      ],
      "type": "SCALAR"
    },
    {
      "bufferView": 2,
      "byteOffset": 815304,
      "componentType": 5126,
      "count": 1948,
      "max": [
        5.8823118209838867,
        61.427055358886719,
        741.4442138671875
      ],
      "min": [
        -12.905957221984863,
        54.557460784912109,
        733.890625
      ],
      "type": "VEC3"
    },
    {
      "bufferView": 2,
      "byteOffset": 838680,
      "componentType": 5126,
      "count": 1948,
      "max": [
        0.9998704195022583,
        0.9994044303894043,
        0.99903136491775513
      ],
      "min": [
        -0.99987035989761353,
        -0.9994046688079834,
        -0.9990355372428894
      ],
      "type": "VEC3"
    },
    {
      "bufferView": 1,
      "byteOffset": 543536,
      "componentType": 5126,
      "count": 1948,
      "max": [
        1.0596463680267334,
        1.0598995685577393
      ],
      "min": [
        -0.059631705284118652,
        -0.059895753860473633
      ],
      "type": "VEC2"
    },
    {
      "bufferView": 0,
      "byteOffset": 750624,
      "componentType": 5125,
      "count": 11664,
      "max": [
        1947
      ],
      "min": [
        0
      ],
      "type": "SCALAR"
    }
  ],
  "asset": {
    "extras": {
      "author": "Julian Johnson (https://sketchfab.com/FreddyFoxFreddy)",
      "license": "CC-BY-4.0 (http://creativecommons.org/licenses/by/4.0/)",
      "source": "https://sketchfab.com/3d-models/styxosaurus-snowii-c0ee838a9345458b91ef2cca3ba94542",
      "title": "styxosaurus snowii"
    },
    "generator": "Sketchfab-7.81.0",
    "version": "2.0"
  },
  "bufferViews": [
    {
      "buffer": 0,
      "byteLength": 797280,
      "byteOffset": 0,
      "name": "floatBufferViews",
      "target": 34963
    },
    {
      "buffer": 0,
      "byteLength": 559120,
      "byteOffset": 797280,
      "byteStride": 8,
      "name": "floatBufferViews",
      "target": 34962
    },
    {
      "buffer": 0,
      "byteLength": 862056,
      "byteOffset": 1356400,
      "byteStride": 12,
      "name": "floatBufferViews",
      "target": 34962
    }
  ],
  "buffers": [
    {
      "byteLength": 2218456,
      "uri": "scene.bin"
    }
  ],
  "images": [
    {
      "uri": "textures/tail_baseColor.jpeg"
    },
    {
      "uri": "textures/head_baseColor.jpeg"
    },
    {
      "uri": "textures/neck_baseColor.jpeg"
    },
    {
      "uri": "textures/body_baseColor.jpeg"
    },
    {
      "uri": "textures/material_baseColor.jpeg"
    },
    {
      "uri": "textures/teeth_baseColor.jpeg"
    },
    {
      "uri": "textures/material_6_baseColor.jpeg"
    }
  ],
  "materials": [
    {
      "doubleSided": true,
      "emissiveFactor": [
        0,
        0,
        0
      ],
      "name": "tail",
      "pbrMetallicRoughness": {
        "baseColorFactor": [
          1,
          1,
          1,
          1
        ],
        "baseColorTexture": {
          "index": 0,
          "texCoord": 0
        },
        "metallicFactor": 0,
        "roughnessFactor": 0.31097560975609756
      }
    },
    {
      "doubleSided": true,
      "emissiveFactor": [
        0,
        0,
        0
      ],
      "name": "head",
      "pbrMetallicRoughness": {
        "baseColorFactor": [
          1,
          1,
          1,
          1
        ],
        "baseColorTexture": {
          "index": 1,
          "texCoord": 0
        },
        "metallicFactor": 0,
        "roughnessFactor": 0.28048780487804881
      }
    },
    {
      "doubleSided": true,
      "emissiveFactor": [
        0,
        0,
        0
      ],
      "name": "neck",
      "pbrMetallicRoughness": {
        "baseColorFactor": [
          1,
          1,
          1,
          1
        ],
        "baseColorTexture": {
          "index": 2,
          "texCoord": 0
        },
        "metallicFactor": 0,
        "roughnessFactor": 0.28658536585365851
      }
    },
    {
      "doubleSided": true,
      "emissiveFactor": [
        0,
        0,
        0
      ],
      "name": "body",
      "pbrMetallicRoughness": {
        "baseColorFactor": [
          1,
          1,
          1,
          1
        ],
        "baseColorTexture": {
          "index": 3,
          "texCoord": 0
        },
        "metallicFactor": 0,
        "roughnessFactor": 0.26829268292682928
      }
    },
    {
      "doubleSided": true,
      "emissiveFactor": [
        0,
        0,
        0
      ],
      "name": "material",
      "pbrMetallicRoughness": {
        "baseColorFactor": [
          1,
          1,
          1,
          1
        ],
        "baseColorTexture": {
          "index": 4,
          "texCoord": 0
        },
        "metallicFactor": 0,
        "roughnessFactor": 0.1402439024390244
      }
    },
    {
      "doubleSided": true,
      "emissiveFactor": [
        0,
        0,
        0
      ],
      "name": "teeth",
      "pbrMetallicRoughness": {
        "baseColorFactor": [
          1,
          1,
          1,
          1
        ],
        "baseColorTexture": {
          "index": 5,
          "texCoord": 0
        },
        "metallicFactor": 0,
        "roughnessFactor": 0.22560975609756098
      }
    },
    {
      "doubleSided": true,
      "emissiveFactor": [
        0,
        0,
        0
      ],
      "name": "material_6",
      "pbrMetallicRoughness": {
        "baseColorFactor": [
          1,
          1,
          1,
          1
        ],
        "baseColorTexture": {
          "index": 6,
          "texCoord": 0
        },
        "metallicFactor": 0,
        "roughnessFactor": 0.085365853658536592
      }
    }
  ],
  "meshes": [
    {
      "name": "Styx_tail_0",
      "primitives": [
        {
          "attributes": {
            "NORMAL": 1,
            "POSITION": 0,
            "TEXCOORD_0": 2,
            "TEXCOORD_1": 3
          },
          "indices": 4,
          "material": 0,
          "mode": 4
        }
      ]
    },
    {
      "name": "Styx_head_0",
      "primitives": [
        {
          "attributes": {
            "NORMAL": 6,
            "POSITION": 5,
            "TEXCOORD_0": 7,
            "TEXCOORD_1": 8
          },
          "indices": 9,
          "material": 1,
          "mode": 4
        }
      ]
    },
    {
      "name": "Styx_neck_0",
      "primitives": [
        {
          "attributes": {
            "NORMAL": 11,
            "POSITION": 10,
            "TEXCOORD_0": 12,
            "TEXCOORD_1": 13
          },
          "indices": 14,
          "material": 2,
          "mode": 4
        }
      ]
    },
    {
      "name": "Styx_body_0",
      "primitives": [
        {
          "attributes": {
            "NORMAL": 16,
            "POSITION": 15,
            "TEXCOORD_0": 17,
            "TEXCOORD_1": 18
          },
          "indices": 19,
          "material": 3,
          "mode": 4
        }
      ]
    },
    {
      "name": "Styx_tun_0",
      "primitives": [
        {
          "attributes": {
            "NORMAL": 21,
            "POSITION": 20,
            "TEXCOORD_0": 22,
            "TEXCOORD_1": 23
          },
          "indices": 24,
          "material": 4,
          "mode": 4
        }
      ]
    },
    {
      "name": "teeth1_teeth_0",
      "primitives": [
        {
          "attributes": {
            "NORMAL": 26,
            "POSITION": 25,
            "TEXCOORD_0": 27,
            "TEXCOORD_1": 28
          },
          "indices": 29,
          "material": 5,
          "mode": 4
        }
      ]
    },
    {
      "name": "eye1_eye_0",
      "primitives": [
        {
          "attributes": {
            "NORMAL": 31,
            "POSITION": 30,
            "TEXCOORD_0": 32
          },
          "indices": 33,
          "material": 6,
          "mode": 4
        }
      ]
    }
  ],
  "nodes": [
    {
      "children": [
        1
      ],
      "name": "RootNode (gltf orientation matrix)",
      "rotation": [
        -0.70710678118654746,
        -0,
        -0,
        0.70710678118654757
      ]
    },
    {
      "children": [
        2
      ],
      "name": "RootNode (model correction matrix)"
    },
    {
      "children": [
        3
      ],
      "matrix": [
        1,
        0,
        0,
        0,
        0,
        0,
        1,
        0,
        0,
        -1,
        0,
        0,
        0,
        0,
        0,
        1
      ],
      "name": "3711fb920eaf4a88b031fa2bd3413ec6.fbx"
    },
    {
      "children": [
        4,
        10,
        12
      ],
      "name": "RootNode"
    },
    {
      "children": [
        5,
        6,
        7,
        8,
        9
      ],
      "matrix": [
        1,
        0,
        0,
        0,
        0,
        1,
        0,
        0,
        0,
        0,
        1,
        0,
        0,
        -400,
        0,
        1
      ],
      "name": "Styx"
    },
    {
      "mesh": 0,
      "name": "Styx_tail_0"
    },
    {
      "mesh": 1,
      "name": "Styx_head_0"
    },
    {
      "mesh": 2,
      "name": "Styx_neck_0"
    },
    {
      "mesh": 3,
      "name": "Styx_body_0"
    },
    {
      "mesh": 4,
      "name": "Styx_tun_0"
    },
    {
      "children": [
        11
      ],
      "matrix": [
        1,
        0,
        0,
        0,
        0,
        1,
        0,
        0,
        0,
        0,
        1,
        0,
        0,
        -400,
        0,
        1
      ],
      "name": "teeth1"
    },
    {
      "mesh": 5,
      "name": "teeth1_teeth_0"
    },
    {
      "children": [
        13
      ],
      "name": "eye1"
    },
    {
      "mesh": 6,
      "name": "eye1_eye_0"
    }
  ],
  "samplers": [
    {
      "magFilter": 9729,
      "minFilter": 9987,
      "wrapS": 10497,
      "wrapT": 10497
    }
  ],
  "scene": 0,
  "scenes": [
    {
      "name": "OSG_Scene",
      "nodes": [
        0
      ]
    }
  ],
  "textures": [
    {
      "sampler": 0,
      "source": 0
    },
    {
      "sampler": 0,
      "source": 1
    },
    {
      "sampler": 0,
      "source": 2
    },
    {
      "sampler": 0,
      "source": 3
    },
    {
      "sampler": 0,
      "source": 4
    },
    {
      "sampler": 0,
      "source": 5
    },
    {
      "sampler": 0,
      "source": 6
    }
  ]
}

